<svg width="174.602" height="104.103" viewBox="0 0 174.602 104.103" xmlns="http://www.w3.org/2000/svg"><g id="svgGroup" stroke-linecap="round" fill-rule="evenodd" font-size="9pt" stroke="#ffffff00" stroke-width="0.25mm" fill="#81f78c" style="stroke:#ffffff00;stroke-width:0.25mm;fill:#81f78c"><path d="M 126.301 8.551 L 126.301 80.701 A 50.076 50.076 0 0 0 126.408 84.086 Q 126.638 87.467 127.362 89.721 A 12.315 12.315 0 0 0 127.651 90.526 A 10.236 10.236 0 0 0 128.864 92.762 A 7.372 7.372 0 0 0 131.776 95.176 Q 134.551 96.451 139.651 96.751 Q 140.275 98.497 140.38 101.799 A 44.144 44.144 0 0 1 140.401 103.201 A 169.058 169.058 0 0 0 135.591 102.964 Q 130.572 102.781 123.774 102.755 A 601.316 601.316 0 0 0 121.501 102.751 Q 108.102 102.751 102.081 103.133 A 73.069 73.069 0 0 0 101.101 103.201 Q 101.101 99.648 101.602 97.596 A 8.517 8.517 0 0 1 101.851 96.751 A 22.503 22.503 0 0 0 104.691 96.442 Q 107.757 95.892 109.393 94.472 A 5.513 5.513 0 0 0 110.026 93.826 A 6.874 6.874 0 0 0 111.12 91.854 Q 111.891 89.811 112.112 86.534 A 42.207 42.207 0 0 0 112.201 83.701 L 112.201 20.401 A 40.814 40.814 0 0 0 112.082 17.153 Q 111.826 13.966 111.024 12.003 A 6.613 6.613 0 0 0 110.026 10.276 A 6.384 6.384 0 0 0 107.857 8.634 Q 105.91 7.688 102.849 7.419 A 26.522 26.522 0 0 0 101.851 7.351 Q 101.227 5.605 101.122 2.303 A 44.144 44.144 0 0 1 101.101 0.901 Q 108.901 1.351 121.501 1.351 L 140.551 1.051 A 59.808 59.808 0 0 1 149.92 1.734 Q 154.832 2.515 158.727 4.189 A 24.341 24.341 0 0 1 166.351 9.226 A 27.535 27.535 0 0 1 174.488 27.226 A 37.069 37.069 0 0 1 174.601 30.151 Q 174.601 39.151 170.701 47.026 Q 166.801 54.901 159.076 59.851 A 30.935 30.935 0 0 1 147.308 64.268 A 41.259 41.259 0 0 1 140.551 64.801 A 39.794 39.794 0 0 1 136.121 64.569 Q 133.968 64.327 132.135 63.834 A 19.713 19.713 0 0 1 130.051 63.151 A 32.641 32.641 0 0 1 129.92 62.298 Q 129.791 61.372 129.76 60.693 A 8.824 8.824 0 0 1 129.751 60.301 A 12.538 12.538 0 0 1 129.902 58.32 A 10.182 10.182 0 0 1 130.201 57.001 A 33.145 33.145 0 0 0 136.584 57.869 A 38.051 38.051 0 0 0 138.151 57.901 A 27.261 27.261 0 0 0 146.903 56.616 Q 159.301 52.417 159.301 34.501 A 41.655 41.655 0 0 0 158.607 26.653 Q 157.235 19.507 153.151 14.776 A 19.088 19.088 0 0 0 144.516 9.165 Q 139.966 7.651 133.951 7.651 Q 130.651 7.651 126.301 8.551 Z M 31.969 101.622 A 48.759 48.759 0 0 0 47.701 104.101 A 67.804 67.804 0 0 0 56.94 103.498 A 50.597 50.597 0 0 0 67.426 100.951 A 49.164 49.164 0 0 0 68.312 100.618 Q 72.6 98.958 77.017 96.339 A 81.788 81.788 0 0 0 85.201 90.751 A 4.587 4.587 0 0 0 85.024 90.003 Q 84.898 89.608 84.695 89.171 A 11.17 11.17 0 0 0 84.226 88.276 Q 83.401 86.851 82.501 86.101 Q 76.051 90.151 68.551 92.551 A 54.347 54.347 0 0 1 64.368 93.711 A 45.425 45.425 0 0 1 54.001 94.951 A 41.864 41.864 0 0 1 50.946 94.841 A 33.382 33.382 0 0 1 33.601 88.726 A 36.603 36.603 0 0 1 26.724 82.325 A 42.222 42.222 0 0 1 20.326 71.626 A 56.058 56.058 0 0 1 17.159 61.42 A 68.614 68.614 0 0 1 15.751 47.251 A 62.373 62.373 0 0 1 15.937 42.397 A 52.17 52.17 0 0 1 19.501 26.851 Q 23.251 17.551 31.201 11.851 A 27.049 27.049 0 0 1 31.659 11.53 Q 39.498 6.151 51.301 6.151 A 37.686 37.686 0 0 1 54.058 6.249 Q 57.463 6.499 60.273 7.387 A 17.621 17.621 0 0 1 67.651 11.776 A 14.27 14.27 0 0 1 69.673 14.4 Q 73.321 20.4 73.801 32.401 A 30.563 30.563 0 0 0 74.789 32.385 Q 78.807 32.255 81.751 31.051 A 254.545 254.545 0 0 1 81.798 26.063 Q 81.951 18.27 82.603 12.794 A 56.814 56.814 0 0 1 83.401 7.801 A 97.383 97.383 0 0 0 76.063 4.674 A 75.898 75.898 0 0 0 67.051 1.876 A 64.392 64.392 0 0 0 60.751 0.697 A 78.348 78.348 0 0 0 50.101 0.001 Q 36.901 0.001 25.426 5.851 Q 13.951 11.701 6.976 23.251 A 46.952 46.952 0 0 0 1.242 38.26 A 65.147 65.147 0 0 0 0.001 51.301 A 71.132 71.132 0 0 0 0.594 60.62 A 56.084 56.084 0 0 0 6.076 78.751 A 53.857 53.857 0 0 0 6.267 79.125 A 45.383 45.383 0 0 0 23.026 97.426 A 44.027 44.027 0 0 0 31.969 101.622 Z" vector-effect="non-scaling-stroke"/></g></svg>